<?xml version="1.0" encoding="UTF-8" standalone="no"?>
<svg
   id="Capa_1"
   enable-background="new 0 0 150 150"
   viewBox="0 0 89.974998 91.801743"
   version="1.1"
   sodipodi:docname="google.fr.svg"
   width="89.974998"
   height="91.801743"
   inkscape:version="1.4 (86a8ad7, 2024-10-11)"
   xmlns:inkscape="http://www.inkscape.org/namespaces/inkscape"
   xmlns:sodipodi="http://sodipodi.sourceforge.net/DTD/sodipodi-0.dtd"
   xmlns="http://www.w3.org/2000/svg"
   xmlns:svg="http://www.w3.org/2000/svg">
  <defs
     id="defs4" />
  <sodipodi:namedview
     id="namedview4"
     pagecolor="#ffffff"
     bordercolor="#000000"
     borderopacity="0.25"
     inkscape:showpageshadow="2"
     inkscape:pageopacity="0.0"
     inkscape:pagecheckerboard="0"
     inkscape:deskcolor="#d1d1d1"
     inkscape:zoom="5.1533333"
     inkscape:cx="44.825356"
     inkscape:cy="45.892626"
     inkscape:window-width="1920"
     inkscape:window-height="991"
     inkscape:window-x="-9"
     inkscape:window-y="-9"
     inkscape:window-maximized="1"
     inkscape:current-layer="Capa_1" />
  <g
     id="g4"
     transform="translate(-30.025,-29.098255)">
    <path
       d="m 120,76.1 c 0,-3.1 -0.3,-6.3 -0.8,-9.3 H 75.9 v 17.7 h 24.8 c -1,5.7 -4.3,10.7 -9.2,13.9 l 14.8,11.5 C 115,101.8 120,90 120,76.1 Z"
       fill="#4280ef"
       id="path1" />
    <path
       d="m 75.9,120.9 c 12.4,0 22.8,-4.1 30.4,-11.1 L 91.5,98.4 c -4.1,2.8 -9.4,4.4 -15.6,4.4 -12,0 -22.1,-8.1 -25.8,-18.9 L 34.9,95.6 c 7.8,15.5 23.6,25.3 41,25.3 z"
       fill="#34a353"
       id="path2" />
    <path
       d="m 50.1,83.8 c -1.9,-5.7 -1.9,-11.9 0,-17.6 L 34.9,54.4 c -6.5,13 -6.5,28.3 0,41.2 z"
       fill="#f6b704"
       id="path3" />
    <path
       d="m 75.9,47.3 c 6.5,-0.1 12.9,2.4 17.6,6.9 L 106.6,41 C 98.3,33.2 87.3,29 75.9,29.1 c -17.4,0 -33.2,9.8 -41,25.3 L 50.1,66.2 C 53.8,55.3 63.9,47.3 75.9,47.3 Z"
       fill="#e54335"
       id="path4" />
  </g>
</svg>
