<?xml version="1.0" encoding="UTF-8" standalone="no"?>
<!-- Created with Inkscape (http://www.inkscape.org/) -->

<svg
   version="1.1"
   id="svg1"
   width="1055.0765"
   height="503.60587"
   viewBox="0 0 1055.0765 503.60587"
   sodipodi:docname="logo_nia.svg"
   inkscape:version="1.4 (86a8ad7, 2024-10-11)"
   xmlns:inkscape="http://www.inkscape.org/namespaces/inkscape"
   xmlns:sodipodi="http://sodipodi.sourceforge.net/DTD/sodipodi-0.dtd"
   xmlns="http://www.w3.org/2000/svg"
   xmlns:svg="http://www.w3.org/2000/svg">
  <defs
     id="defs1" />
  <sodipodi:namedview
     id="namedview1"
     pagecolor="#ffffff"
     bordercolor="#000000"
     borderopacity="0.25"
     inkscape:showpageshadow="2"
     inkscape:pageopacity="0.0"
     inkscape:pagecheckerboard="0"
     inkscape:deskcolor="#d1d1d1"
     inkscape:zoom="0.68"
     inkscape:cx="622.05882"
     inkscape:cy="197.79412"
     inkscape:window-width="1920"
     inkscape:window-height="991"
     inkscape:window-x="-9"
     inkscape:window-y="-9"
     inkscape:window-maximized="1"
     inkscape:current-layer="g1" />
  <g
     inkscape:groupmode="layer"
     inkscape:label="Image"
     id="g1"
     transform="translate(2.5382352,9.8911762)">
    <path
       style="font-weight:bold;font-size:121.29px;font-family:'Arista Pro Trial';-inkscape-font-specification:'Arista Pro Trial Bold';text-align:center;text-anchor:middle;stroke:#162d50;stroke-width:0"
       d="m 46.58141,460.1764 q -1.599038,0 -3.138852,-0.59223 -1.480591,-0.65146 -2.546617,-1.71749 -2.428169,-2.30972 -2.428169,-5.68547 v -39.8575 q 0,-6.69227 1.895157,-12.37774 1.95438,-5.68547 5.626245,-9.83112 3.731089,-4.20488 9.061216,-6.45538 5.330127,-2.30972 11.963174,-2.30972 6.69227,0 12.140845,2.2505 5.448574,2.19127 9.29811,6.39615 3.790312,4.14565 5.744692,10.12724 2.013604,5.92236 2.013604,13.20687 v 38.8507 q 0,3.43497 -2.368945,5.68547 -1.125249,1.06603 -2.665064,1.71749 -1.480591,0.59223 -3.079629,0.59223 -3.316523,0 -5.744692,-2.30972 -2.368946,-2.2505 -2.368946,-5.68547 v -38.8507 q 0,-7.5214 -3.257299,-11.66706 -3.2573,-4.14565 -9.298111,-4.14565 -6.336929,0 -9.535005,3.84954 -3.138852,3.79031 -3.138852,12.02239 v 38.79148 q 0,3.31653 -2.368946,5.68547 -1.125249,1.06603 -2.665063,1.71749 -1.539815,0.59223 -3.138853,0.59223 z m 74.26644,0.0592 q -1.59904,0 -3.07963,-0.59224 -1.42137,-0.59224 -2.4874,-1.65826 -1.06602,-1.06603 -1.71748,-2.48739 -0.59224,-1.42137 -0.59224,-3.02041 V 388.9896 q 0,-3.2573 2.30972,-5.56702 1.06603,-1.00681 2.4874,-1.59904 1.48059,-0.59224 3.07963,-0.59224 3.2573,0 5.56702,2.19128 2.30972,2.30972 2.30972,5.56702 v 63.48773 q 0,1.59904 -0.65146,3.02041 -0.59224,1.42136 -1.65826,2.48739 -2.2505,2.2505 -5.56702,2.2505 z m 31.15163,-0.0592 q -3.31653,0 -5.74469,-2.30972 -2.36895,-2.2505 -2.36895,-5.68547 v -39.8575 q 0,-6.69227 1.89516,-12.37774 1.95438,-5.68547 5.62624,-9.83112 3.73109,-4.20488 9.06122,-6.45538 5.33012,-2.30972 11.96317,-2.30972 6.69227,0 12.08162,2.2505 5.44858,2.19127 9.29811,6.39615 3.79032,4.14565 5.80392,10.12724 2.0136,5.92236 2.0136,13.20687 v 38.8507 q 0,3.31653 -2.36894,5.68547 -1.12525,1.06603 -2.66507,1.71749 -1.48059,0.59223 -3.07963,0.59223 -1.71748,0 -3.19807,-0.59223 -1.48059,-0.65146 -2.54662,-1.71749 -2.42817,-2.30972 -2.42817,-5.68547 v -12.37774 h -25.22926 v 12.37774 q 0,3.43497 -2.36895,5.68547 -1.12525,1.06603 -2.66506,1.71749 -1.48059,0.59223 -3.07963,0.59223 z m 33.3429,-36.54098 v -10.30491 q 0,-7.58063 -3.19807,-11.66706 -3.19808,-4.14565 -9.35734,-4.14565 -6.21848,0 -9.47578,3.84954 -3.19807,3.79031 -3.19807,12.02239 v 10.24569 z m 82.6762,36.65943 q -3.2573,0 -5.38936,-2.2505 -2.13205,-2.13205 -2.13205,-5.50779 v -55.49255 h -15.0428 q -3.2573,0 -5.56702,-2.30972 -2.2505,-2.2505 -2.2505,-5.56702 0,-1.59904 0.59224,-3.02041 0.59223,-1.42136 1.65826,-2.48739 2.30972,-2.30972 5.56702,-2.30972 h 45.24686 q 1.59903,0 3.0204,0.65146 1.48059,0.59223 2.54662,1.65826 1.06602,1.12525 1.65826,2.60584 0.65146,1.42137 0.65146,3.0204 0,1.59904 -0.65146,3.02041 -0.59224,1.42137 -1.65826,2.48739 -1.06603,1.06603 -2.54662,1.65826 -1.42137,0.59224 -3.0204,0.59224 h -14.74669 v 55.49255 q 0,1.59903 -0.65146,3.0204 -0.59223,1.42137 -1.65826,2.48739 -1.12525,1.06603 -2.60584,1.65826 -1.42137,0.59224 -3.0204,0.59224 z m 47.31969,-0.71068 q -3.19808,-0.29612 -5.15246,-2.42817 -2.13205,-2.2505 -2.13205,-5.33013 v -62.59938 q 0,-1.59904 0.59224,-3.0204 0.59223,-1.48059 1.65826,-2.54662 2.30972,-2.30972 5.62624,-2.30972 h 34.76428 q 3.2573,0 5.56702,2.30972 1.0068,1.06603 1.59904,2.54662 0.59223,1.42136 0.59223,3.0204 0,1.59904 -0.59223,3.07963 -0.59224,1.48059 -1.59904,2.54662 -2.30972,2.30972 -5.56702,2.30972 h -26.88753 v 14.86513 h 20.13603 q 3.2573,0 5.56702,2.19127 2.30973,2.30973 2.30973,5.56703 0,3.2573 -2.30973,5.44857 -2.25049,2.13205 -5.56702,2.13205 h -20.13603 v 16.52339 h 26.88753 q 3.2573,0 5.56702,2.30973 1.0068,1.06602 1.59904,2.54661 0.59223,1.48059 0.59223,3.07963 0,3.37575 -2.19127,5.56702 -2.30972,2.19128 -5.56702,2.19128 z m 82.08395,0.65146 q -5.98159,0 -11.31171,-2.13205 -5.27091,-2.19128 -9.23889,-6.15926 -4.08643,-4.08643 -6.33693,-9.65345 -2.2505,-5.56702 -2.2505,-12.14085 v -18.83311 q 0,-6.57383 2.2505,-12.14085 2.2505,-5.56702 6.33693,-9.65345 3.96798,-3.96798 9.23889,-6.10003 5.33012,-2.19128 11.31171,-2.19128 8.64665,0 15.39815,4.08643 5.09323,3.07963 9.29811,9.12044 1.65826,2.42817 1.65826,5.21168 0,3.13885 -2.36895,5.38935 -2.42817,2.30972 -5.86314,2.30972 -3.73109,0 -5.44857,-2.78351 -1.42137,-2.19127 -2.36895,-3.37574 -0.88835,-1.18448 -2.13205,-2.01361 -2.96118,-2.0136 -8.17286,-2.0136 -5.86314,0 -9.23889,3.31652 -4.0272,3.84954 -4.0272,10.71948 v 19.07001 q 0,6.86994 4.0272,10.71948 3.37575,3.31652 9.23889,3.31652 5.15246,0 8.23209,-2.0136 1.24369,-0.82913 2.19127,-2.01361 0.94758,-1.24369 2.2505,-3.37574 0.88835,-1.36215 2.30972,-2.01361 1.48059,-0.71068 3.19808,-0.71068 3.43497,0 5.86314,2.2505 2.30972,2.30972 2.30972,5.38935 0,2.48739 -1.53982,4.97478 -1.48059,2.42817 -4.14565,5.21168 -5.03401,5.15246 -12.0224,7.10684 -3.73109,1.12525 -8.64665,1.12525 z m 46.96435,0 q -3.31652,0 -5.56702,-2.2505 -1.06603,-1.06603 -1.71749,-2.48739 -0.59223,-1.42137 -0.59223,-3.02041 V 388.9896 q 0,-3.2573 2.30972,-5.56702 2.30972,-2.19128 5.56702,-2.19128 3.2573,0 5.56702,2.19128 2.30972,2.30972 2.30972,5.56702 v 25.8215 h 27.24287 v -25.8215 q 0,-1.59904 0.65146,-3.02041 0.65146,-1.42137 1.77671,-2.54661 1.06603,-1.00681 2.4874,-1.59904 1.48059,-0.59224 3.07962,-0.59224 3.2573,0 5.56703,2.19128 2.19127,2.30972 2.19127,5.56702 v 63.48773 q 0,1.59904 -0.65146,3.02041 -0.59224,1.42136 -1.65826,2.48739 -2.2505,2.2505 -5.56702,2.2505 -1.59904,0 -3.07963,-0.59224 -1.42137,-0.59224 -2.48739,-1.65826 -1.06603,-1.06603 -1.71749,-2.48739 -0.59224,-1.42137 -0.59224,-3.02041 v -21.85352 h -27.24287 v 21.85352 q 0,1.59904 -0.65146,3.02041 -0.59223,1.42136 -1.65826,2.48739 -2.2505,2.2505 -5.56702,2.2505 z m 74.68099,-0.0592 q -1.59904,0 -3.13886,-0.59223 -1.48059,-0.65146 -2.54661,-1.71749 -2.42817,-2.30972 -2.42817,-5.68547 v -39.8575 q 0,-6.69227 1.89515,-12.37774 1.95438,-5.68547 5.62625,-9.83112 3.73109,-4.20488 9.06121,-6.45538 5.33013,-2.30972 11.96318,-2.30972 6.69227,0 12.14084,2.2505 5.44858,2.19127 9.29811,6.39615 3.79032,4.14565 5.7447,10.12724 2.0136,5.92236 2.0136,13.20687 v 38.8507 q 0,3.43497 -2.36895,5.68547 -1.12524,1.06603 -2.66506,1.71749 -1.48059,0.59223 -3.07963,0.59223 -3.31652,0 -5.74469,-2.30972 -2.36895,-2.2505 -2.36895,-5.68547 v -38.8507 q 0,-7.5214 -3.2573,-11.66706 -3.2573,-4.14565 -9.29811,-4.14565 -6.33692,0 -9.535,3.84954 -3.13885,3.79031 -3.13885,12.02239 v 38.79148 q 0,3.31653 -2.36895,5.68547 -1.12525,1.06603 -2.66506,1.71749 -1.53982,0.59223 -3.13885,0.59223 z m 95.35003,0.0592 q -5.92236,0 -11.31171,-2.19128 -5.38935,-2.19127 -9.47579,-6.15925 -4.14565,-4.02721 -6.45537,-9.59423 -2.30972,-5.56702 -2.30972,-12.14085 v -18.83311 q 0,-6.57383 2.30972,-12.14085 2.30972,-5.56702 6.45537,-9.65345 4.08644,-3.96798 9.47579,-6.10003 5.38935,-2.19128 11.31171,-2.19128 5.92236,0 11.25249,2.19128 5.38935,2.13205 9.47578,6.10003 4.14566,4.08643 6.45538,9.65345 2.30972,5.56702 2.30972,12.14085 v 18.83311 q 0,6.57383 -2.30972,12.14085 -2.30972,5.56702 -6.45538,9.59423 -4.08643,3.96798 -9.47578,6.15925 -5.33013,2.19128 -11.25249,2.19128 z m 0,-15.93116 q 2.72429,0 5.15246,-0.82913 2.42816,-0.82913 4.2641,-2.54662 4.20488,-3.79031 4.20488,-10.66025 v -19.07001 q 0,-3.4942 -1.12525,-6.15926 -1.06603,-2.72429 -3.07963,-4.50099 -1.83594,-1.71749 -4.2641,-2.54662 -2.42817,-0.82913 -5.15246,-0.82913 -2.72429,0 -5.21168,0.88835 -2.42817,0.82913 -4.2641,2.4874 -2.01361,1.7767 -3.13885,4.50099 -1.06603,2.66506 -1.06603,6.15926 v 19.07001 q 0,6.86994 4.20488,10.66025 1.83593,1.65826 4.2641,2.54662 2.48739,0.82913 5.21168,0.82913 z m 52.23524,15.2797 q -1.53982,-0.0592 -2.96118,-0.65146 -1.36215,-0.65146 -2.36895,-1.71749 -2.19127,-2.19127 -2.19127,-5.38935 V 388.9896 q 0,-3.2573 2.30972,-5.56702 1.06602,-1.00681 2.48739,-1.59904 1.48059,-0.59224 3.07963,-0.59224 3.2573,0 5.56702,2.19128 2.30972,2.30972 2.30972,5.56702 v 54.9003 l 26.88753,0.0592 q 3.2573,0 5.56702,2.30972 2.2505,2.2505 2.2505,5.56702 0,3.43497 -2.2505,5.56702 -2.19127,2.19128 -5.56702,2.19128 z m 78.58977,0.65146 q -5.92236,0 -11.31171,-2.19128 -5.38935,-2.19127 -9.47578,-6.15925 -4.14566,-4.02721 -6.45538,-9.59423 -2.30972,-5.56702 -2.30972,-12.14085 v -18.83311 q 0,-6.57383 2.30972,-12.14085 2.30972,-5.56702 6.45538,-9.65345 4.08643,-3.96798 9.47578,-6.10003 5.38935,-2.19128 11.31171,-2.19128 5.92237,0 11.25249,2.19128 5.38935,2.13205 9.47578,6.10003 4.14566,4.08643 6.45538,9.65345 2.30972,5.56702 2.30972,12.14085 v 18.83311 q 0,6.57383 -2.30972,12.14085 -2.30972,5.56702 -6.45538,9.59423 -4.08643,3.96798 -9.47578,6.15925 -5.33012,2.19128 -11.25249,2.19128 z m 0,-15.93116 q 2.72429,0 5.15246,-0.82913 2.42817,-0.82913 4.2641,-2.54662 4.20488,-3.79031 4.20488,-10.66025 v -19.07001 q 0,-3.4942 -1.12525,-6.15926 -1.06603,-2.72429 -3.07963,-4.50099 -1.83593,-1.71749 -4.2641,-2.54662 -2.42817,-0.82913 -5.15246,-0.82913 -2.72429,0 -5.21168,0.88835 -2.42817,0.82913 -4.2641,2.4874 -2.0136,1.7767 -3.13885,4.50099 -1.06603,2.66506 -1.06603,6.15926 v 19.07001 q 0,6.86994 4.20488,10.66025 1.83593,1.65826 4.2641,2.54662 2.48739,0.82913 5.21168,0.82913 z m 73.25963,15.93116 q -5.98159,0 -11.31171,-2.13205 -5.27091,-2.19128 -9.23889,-6.15926 -4.08643,-4.08643 -6.33693,-9.65345 -2.2505,-5.56702 -2.2505,-12.14085 v -18.83311 q 0,-6.57383 2.2505,-12.14085 2.2505,-5.56702 6.33693,-9.65345 3.96798,-3.96798 9.23889,-6.10003 5.33012,-2.19128 11.31171,-2.19128 8.64665,0 15.39815,4.08643 5.09323,3.07963 9.29811,9.12044 1.65826,2.42817 1.65826,5.21168 0,3.07963 -2.30972,5.38935 -2.42817,2.30972 -5.92237,2.30972 -1.71748,0 -3.13885,-0.71068 -1.42137,-0.71068 -2.30972,-2.07283 -1.48059,-2.30972 -2.36895,-3.43497 -0.82913,-1.12525 -2.07282,-1.95438 -1.53982,-1.0068 -3.4942,-1.48059 -1.89515,-0.53301 -4.73789,-0.53301 -5.74469,0 -9.23889,3.31652 -4.0272,3.84954 -4.0272,10.71948 v 19.07001 q 0,6.86994 4.0272,10.71948 3.4942,3.31652 9.23889,3.31652 5.44857,0 8.88355,-2.30972 1.48059,-1.0068 2.66506,-2.36895 1.18447,-1.36214 2.36894,-3.31652 v -5.74469 h -4.61944 q -1.59904,0 -3.0204,-0.59224 -1.42137,-0.65146 -2.4874,-1.71748 -1.06602,-1.06603 -1.65826,-2.4874 -0.59223,-1.48059 -0.59223,-3.13885 0,-1.53981 0.59223,-2.96118 0.59224,-1.48059 1.65826,-2.60584 1.06603,-1.06603 2.4874,-1.65826 1.42136,-0.65146 3.0204,-0.65146 l 11.31172,0.11844 q 1.59903,0 3.0204,0.65146 1.48059,0.59224 2.60584,1.65827 2.30972,2.30972 2.30972,5.44857 v 12.79231 q 0,1.42136 -0.17767,3.0204 -0.17767,1.83593 -0.59224,2.72429 -3.84953,9.06121 -11.25249,14.15445 -7.16606,4.91556 -16.52339,4.91556 z m 50.34011,0 q -1.59904,0 -3.07963,-0.59224 -1.42137,-0.59224 -2.48739,-1.65826 -1.06603,-1.06603 -1.71749,-2.48739 -0.59224,-1.42137 -0.59224,-3.02041 V 388.9896 q 0,-3.2573 2.30973,-5.56702 1.06602,-1.00681 2.48739,-1.59904 1.48059,-0.59224 3.07963,-0.59224 3.2573,0 5.56702,2.19128 2.30972,2.30972 2.30972,5.56702 v 63.48773 q 0,1.59904 -0.65146,3.02041 -0.59224,1.42136 -1.65826,2.48739 -2.2505,2.2505 -5.56702,2.2505 z m 30.91472,-0.65146 q -3.19808,-0.29612 -5.15246,-2.42817 -2.13205,-2.2505 -2.13205,-5.33013 v -62.59938 q 0,-1.59904 0.59224,-3.0204 0.59224,-1.48059 1.65826,-2.54662 2.30972,-2.30972 5.62625,-2.30972 h 34.76427 q 3.2573,0 5.56702,2.30972 1.0068,1.06603 1.59904,2.54662 0.59223,1.42136 0.59223,3.0204 0,1.59904 -0.59223,3.07963 -0.59224,1.48059 -1.59904,2.54662 -2.30972,2.30972 -5.56702,2.30972 h -26.88753 v 14.86513 h 20.13603 q 3.2573,0 5.56703,2.19127 2.30972,2.30973 2.30972,5.56703 0,3.2573 -2.30972,5.44857 -2.2505,2.13205 -5.56703,2.13205 h -20.13603 v 16.52339 h 26.88753 q 3.2573,0 5.56702,2.30973 1.0068,1.06602 1.59904,2.54661 0.59223,1.48059 0.59223,3.07963 0,3.37575 -2.19127,5.56702 -2.30972,2.19128 -5.56702,2.19128 z"
       id="text14"
       transform="scale(1.0672169,0.93701663)"
       aria-label="NIA TECHNOLOGIE" />
    <rect
       style="fill:none;stroke:#ff0000;stroke-width:14.4536;stroke-dasharray:none"
       id="rect1"
       width="323.8038"
       height="95.685127"
       x="336.00238"
       y="-290.66"
       transform="matrix(0.71279806,0.70136932,-0.72485537,0.68890107,0,0)"
       rx="45.757832" />
    <rect
       style="fill:none;stroke:#ff0000;stroke-width:13.0352;stroke-dasharray:none"
       id="rect1-8"
       width="258.58545"
       height="97.053551"
       x="38.725712"
       y="-660.51044"
       transform="matrix(0.01022545,0.99994772,-0.99979808,-0.02009468,0,0)"
       rx="51.175541" />
    <path
       id="rect1-8-1"
       style="fill:none;stroke:#ff0000;stroke-width:12.5186"
       d="m 487.26101,255.02688 c 12.29576,24.62483 -13.09197,56.4827 -38.92216,55.95212 -25.83019,-0.53059 -47.19823,-14.88336 -47.12211,-50.65173 l 0.20982,-98.58855 c 59.60055,62.13168 77.28496,76.166 85.23911,92.09586 7.95415,15.92986 0.59534,1.1923 0.59534,1.1923 z"
       sodipodi:nodetypes="sssczs" />
  </g>
</svg>
