<?xml version="1.0" encoding="UTF-8" standalone="no"?>
<!-- Created with Inkscape (http://www.inkscape.org/) -->

<svg
   version="1.1"
   id="svg1"
   width="1574.3167"
   height="282.64999"
   viewBox="0 0 1574.3166 282.65"
   sodipodi:docname="logo_nia_h.svg"
   inkscape:version="1.4 (86a8ad7, 2024-10-11)"
   xmlns:inkscape="http://www.inkscape.org/namespaces/inkscape"
   xmlns:sodipodi="http://sodipodi.sourceforge.net/DTD/sodipodi-0.dtd"
   xmlns="http://www.w3.org/2000/svg"
   xmlns:svg="http://www.w3.org/2000/svg">
  <defs
     id="defs1" />
  <sodipodi:namedview
     id="namedview1"
     pagecolor="#ffffff"
     bordercolor="#000000"
     borderopacity="0.25"
     inkscape:showpageshadow="2"
     inkscape:pageopacity="0.0"
     inkscape:pagecheckerboard="0"
     inkscape:deskcolor="#d1d1d1"
     inkscape:zoom="0.48"
     inkscape:cx="702.08333"
     inkscape:cy="144.79167"
     inkscape:window-width="1920"
     inkscape:window-height="991"
     inkscape:window-x="-9"
     inkscape:window-y="-9"
     inkscape:window-maximized="1"
     inkscape:current-layer="g1" />
  <g
     inkscape:groupmode="layer"
     inkscape:label="Image"
     id="g1"
     transform="translate(-82.178426,-43.575494)">
    <path
       style="font-weight:bold;font-size:154.554px;font-family:'Arista Pro Trial';-inkscape-font-specification:'Arista Pro Trial Bold';text-align:center;text-anchor:middle;stroke:#162d50;stroke-width:0"
       d="m 383.73392,241.06994 q -2.17454,0 -4.26853,-0.73833 -2.01346,-0.81217 -3.46316,-2.14118 -3.30207,-2.87951 -3.30207,-7.08804 v -49.69017 q 0,-8.34323 2.57723,-15.43127 2.65777,-7.08806 7.65115,-12.25641 5.07392,-5.24221 12.32237,-8.04789 7.24846,-2.87953 16.26876,-2.87953 9.10084,0 16.51037,2.80569 7.40954,2.73186 12.64454,7.97405 5.15445,5.16837 7.81222,12.62559 2.7383,7.38338 2.7383,16.46495 v 48.43499 q 0,4.28235 -3.22153,7.08804 -1.53024,1.32901 -3.62424,2.14118 -2.01345,0.73833 -4.18799,0.73833 -4.51014,0 -7.81222,-2.87951 -3.22154,-2.80569 -3.22154,-7.08804 V 182.6674 q 0,-9.3769 -4.42962,-14.54527 -4.42961,-5.16838 -12.64452,-5.16838 -8.61761,0 -12.96669,4.7992 -4.26853,4.72537 -4.26853,14.98828 v 48.36116 q 0,4.13469 -3.22153,7.08804 -1.53023,1.32901 -3.62423,2.14118 -2.094,0.73833 -4.26854,0.73833 z m 100.99516,0.0739 q -2.17454,0 -4.188,-0.73834 -1.93292,-0.73834 -3.38262,-2.06734 -1.44968,-1.32902 -2.33561,-3.10103 -0.80539,-1.77202 -0.80539,-3.76554 v -79.14985 q 0,-4.06086 3.141,-6.94038 1.4497,-1.25517 3.38262,-1.99352 2.01346,-0.73834 4.188,-0.73834 4.42961,0 7.5706,2.73186 3.141,2.87952 3.141,6.94038 v 79.14985 q 0,1.99352 -0.88592,3.76554 -0.80539,1.77201 -2.25508,3.10103 -3.06046,2.80568 -7.5706,2.80568 z m 42.36318,-0.0739 q -4.51014,0 -7.81222,-2.87951 -3.22153,-2.80569 -3.22153,-7.08804 v -49.69017 q 0,-8.34323 2.57722,-15.43127 2.65778,-7.08806 7.65116,-12.25641 5.07391,-5.24221 12.32237,-8.04789 7.24845,-2.87953 16.26875,-2.87953 9.10084,0 16.42984,2.80569 7.40954,2.73186 12.64452,7.97405 5.15447,5.16837 7.89276,12.62559 2.73831,7.38338 2.73831,16.46495 v 48.43499 q 0,4.13469 -3.22153,7.08804 -1.53023,1.32901 -3.62423,2.14118 -2.01346,0.73833 -4.18799,0.73833 -2.33562,0 -4.34908,-0.73833 -2.01345,-0.81217 -3.46315,-2.14118 -3.30208,-2.87951 -3.30208,-7.08804 v -15.43127 h -34.30935 v 15.43127 q 0,4.28235 -3.22154,7.08804 -1.53023,1.32901 -3.62422,2.14118 -2.01347,0.73833 -4.18801,0.73833 z m 45.34312,-45.55546 V 182.6674 q 0,-9.45073 -4.34907,-14.54527 -4.34908,-5.16838 -12.72506,-5.16838 -8.45653,0 -12.88615,4.7992 -4.34907,4.72537 -4.34907,14.98828 v 12.77325 z m 112.43161,45.70314 q -4.42961,0 -7.32899,-2.80568 -2.89937,-2.65802 -2.89937,-6.86656 v -69.18229 h -20.45676 q -4.42961,0 -7.57061,-2.87952 -3.06046,-2.80568 -3.06046,-6.94038 0,-1.99351 0.80539,-3.76552 0.80537,-1.77201 2.25507,-3.10102 3.141,-2.87953 7.57061,-2.87953 h 61.53133 q 2.17454,0 4.10746,0.81217 2.01347,0.73835 3.46315,2.06736 1.4497,1.40284 2.25508,3.24868 0.88592,1.77202 0.88592,3.76552 0,1.99352 -0.88592,3.76554 -0.80538,1.772 -2.25508,3.10102 -1.44968,1.329 -3.46315,2.06734 -1.93292,0.73834 -4.10746,0.73834 h -20.05406 v 69.18229 q 0,1.99352 -0.88592,3.76554 -0.80539,1.77201 -2.25507,3.10102 -1.53023,1.329 -3.54369,2.06734 -1.93293,0.73834 -4.10747,0.73834 z m 64.35018,-0.88601 q -4.34907,-0.36917 -7.00684,-3.02719 -2.89937,-2.80568 -2.89937,-6.64504 v -78.04235 q 0,-1.99352 0.80537,-3.76553 0.80539,-1.84584 2.25508,-3.17485 3.14099,-2.87953 7.65115,-2.87953 h 47.27604 q 4.42962,0 7.57061,2.87953 1.36915,1.32901 2.17454,3.17485 0.80538,1.77201 0.80538,3.76553 0,1.99351 -0.80538,3.83936 -0.80539,1.84584 -2.17454,3.17484 -3.14099,2.87953 -7.57061,2.87953 h -36.56444 v 18.53229 h 27.38306 q 4.42961,0 7.57061,2.73184 3.141,2.87952 3.141,6.94039 0,4.06086 -3.141,6.79272 -3.06046,2.65802 -7.57061,2.65802 h -27.38306 v 20.59962 h 36.56444 q 4.42962,0 7.57061,2.87953 1.36915,1.32901 2.17454,3.17485 0.80538,1.84584 0.80538,3.83936 0,4.20852 -2.97992,6.94038 -3.14099,2.73185 -7.57061,2.73185 z m 111.62623,0.81218 q -8.13438,0 -15.38285,-2.65802 -7.1679,-2.73185 -12.56398,-7.67873 -5.55716,-5.09452 -8.61761,-12.03491 -3.06046,-6.94037 -3.06046,-15.13593 v -23.47916 q 0,-8.19555 3.06046,-15.13593 3.06045,-6.94038 8.61761,-12.03492 5.39608,-4.94686 12.56398,-7.60488 7.24847,-2.73186 15.38285,-2.73186 11.7586,0 20.93998,5.09454 6.9263,3.83936 12.64452,11.37042 2.25509,3.02718 2.25509,6.49736 0,3.9132 -3.22155,6.71888 -3.30207,2.87952 -7.97329,2.87952 -5.07393,0 -7.40954,-3.47018 -1.93292,-2.73186 -3.22153,-4.20854 -1.20808,-1.47667 -2.89939,-2.51034 -4.02692,-2.51035 -11.11429,-2.51035 -7.97331,0 -12.56399,4.13469 -5.47662,4.7992 -5.47662,13.36393 v 23.77449 q 0,8.56473 5.47662,13.36393 4.59068,4.13468 12.56399,4.13468 7.00683,0 11.19483,-2.51035 1.69131,-1.03367 2.97992,-2.51034 1.28861,-1.55052 3.06046,-4.20854 1.20808,-1.69817 3.141,-2.51034 2.01345,-0.88601 4.34907,-0.88601 4.67123,0 7.9733,2.80568 3.14101,2.87952 3.14101,6.71888 0,3.10102 -2.09401,6.20205 -2.01346,3.02718 -5.63768,6.49737 -6.84577,6.42354 -16.3493,8.86006 -5.07392,1.40285 -11.7586,1.40285 z m 63.86695,0 q -4.51015,0 -7.57061,-2.80569 -1.44969,-1.32902 -2.33561,-3.10102 -0.80539,-1.77202 -0.80539,-3.76553 v -79.14987 q 0,-4.06086 3.141,-6.94037 3.141,-2.73186 7.57061,-2.73186 4.42961,0 7.5706,2.73186 3.14101,2.87951 3.14101,6.94037 v 32.19155 h 37.04766 v -32.19155 q 0,-1.99351 0.88592,-3.76551 0.88593,-1.77202 2.41616,-3.17486 1.44968,-1.25518 3.38261,-1.99352 2.01346,-0.73834 4.18799,-0.73834 4.42962,0 7.57061,2.73186 2.97993,2.87951 2.97993,6.94037 v 79.14987 q 0,1.99351 -0.88593,3.76553 -0.80538,1.772 -2.25507,3.10102 -3.06046,2.80569 -7.57062,2.80569 -2.17452,0 -4.18799,-0.73835 -1.93292,-0.73834 -3.38261,-2.06734 -1.44969,-1.32902 -2.33561,-3.10102 -0.80539,-1.77202 -0.80539,-3.76553 v -27.24467 h -37.04766 v 27.24467 q 0,1.99351 -0.88592,3.76553 -0.80539,1.772 -2.25509,3.10102 -3.06045,2.80569 -7.5706,2.80569 z m 101.55885,-0.0738 q -2.1745,0 -4.2685,-0.73835 -2.0135,-0.81217 -3.4631,-2.14118 -3.3021,-2.87951 -3.3021,-7.08804 v -49.69017 q 0,-8.34323 2.5772,-15.43127 2.6578,-7.08805 7.6512,-12.25641 5.0739,-5.24221 12.3223,-8.04789 7.2485,-2.87953 16.2688,-2.87953 9.1008,0 16.5104,2.80569 7.4095,2.73186 12.6445,7.97405 5.1545,5.16837 7.8122,12.62559 2.7383,7.38338 2.7383,16.46495 v 48.43499 q 0,4.28235 -3.2216,7.08804 -1.5301,1.32901 -3.6241,2.14118 -2.0136,0.73835 -4.188,0.73835 -4.5102,0 -7.8123,-2.87953 -3.2215,-2.80569 -3.2215,-7.08804 v -48.43499 q 0,-9.3769 -4.4296,-14.54527 -4.4296,-5.16837 -12.6446,-5.16837 -8.6176,0 -12.9666,4.7992 -4.2686,4.72536 -4.2686,14.98827 v 48.36116 q 0,4.13469 -3.2215,7.08804 -1.5302,1.32901 -3.6242,2.14118 -2.094,0.73835 -4.2686,0.73835 z m 129.6669,0.0738 q -8.0539,0 -15.3829,-2.73185 -7.329,-2.73186 -12.8861,-7.67872 -5.6377,-5.0207 -8.7787,-11.96109 -3.1411,-6.94037 -3.1411,-15.13593 v -23.47916 q 0,-8.19555 3.1411,-15.13593 3.141,-6.94038 8.7787,-12.03492 5.5571,-4.94686 12.8861,-7.60488 7.329,-2.73186 15.3829,-2.73186 8.0538,0 15.3023,2.73186 7.329,2.65802 12.8861,7.60488 5.6376,5.09454 8.7787,12.03492 3.141,6.94038 3.141,15.13593 v 23.47916 q 0,8.19556 -3.141,15.13593 -3.1411,6.94039 -8.7787,11.96109 -5.5571,4.94686 -12.8861,7.67872 -7.2485,2.73185 -15.3023,2.73185 z m 0,-19.86131 q 3.7047,0 7.0068,-1.03367 3.3021,-1.03367 5.7988,-3.17485 5.7182,-4.72536 5.7182,-13.29009 v -23.77449 q 0,-4.35621 -1.5302,-7.67873 -1.4497,-3.39636 -4.188,-5.61136 -2.4967,-2.14118 -5.7988,-3.17486 -3.3021,-1.03367 -7.0068,-1.03367 -3.7048,0 -7.0874,1.10751 -3.3021,1.03367 -5.7987,3.10102 -2.7384,2.215 -4.2686,5.61136 -1.4497,3.32252 -1.4497,7.67873 v 23.77449 q 0,8.56473 5.7183,13.29009 2.4966,2.06734 5.7987,3.17485 3.3826,1.03367 7.0874,1.03367 z m 71.0349,19.04913 q -2.094,-0.0739 -4.0269,-0.81217 -1.8524,-0.81217 -3.2215,-2.14118 -2.98,-2.73186 -2.98,-6.71888 v -78.3377 q 0,-4.06086 3.141,-6.94037 1.4497,-1.25518 3.3826,-1.99352 2.0135,-0.73834 4.188,-0.73834 4.4296,0 7.5706,2.73186 3.141,2.87951 3.141,6.94037 v 68.44396 l 36.5644,0.0739 q 4.4296,0 7.5706,2.87951 3.0605,2.80568 3.0605,6.94038 0,4.28237 -3.0605,6.94039 -2.9798,2.73184 -7.5706,2.73184 z m 106.8744,0.81218 q -8.0538,0 -15.3828,-2.73185 -7.329,-2.73186 -12.8862,-7.67872 -5.6377,-5.0207 -8.7786,-11.96109 -3.141,-6.94037 -3.141,-15.13593 v -23.47916 q 0,-8.19555 3.141,-15.13593 3.1409,-6.94038 8.7786,-12.03492 5.5572,-4.94686 12.8862,-7.60488 7.329,-2.73186 15.3828,-2.73186 8.0538,0 15.3023,2.73186 7.329,2.65802 12.8862,7.60488 5.6377,5.09454 8.7786,12.03492 3.141,6.94038 3.141,15.13593 v 23.47916 q 0,8.19556 -3.141,15.13593 -3.1409,6.94039 -8.7786,11.96109 -5.5572,4.94686 -12.8862,7.67872 -7.2485,2.73185 -15.3023,2.73185 z m 0,-19.86131 q 3.7048,0 7.0069,-1.03367 3.3021,-1.03367 5.7987,-3.17485 5.7183,-4.72536 5.7183,-13.29009 v -23.77449 q 0,-4.35621 -1.5303,-7.67873 -1.4497,-3.39636 -4.188,-5.61136 -2.4966,-2.14118 -5.7987,-3.17486 -3.3021,-1.03367 -7.0069,-1.03367 -3.7047,0 -7.0874,1.10751 -3.3021,1.03367 -5.7987,3.10102 -2.7383,2.215 -4.2686,5.61136 -1.4497,3.32252 -1.4497,7.67873 v 23.77449 q 0,8.56473 5.7183,13.29009 2.4966,2.06734 5.7987,3.17485 3.3827,1.03367 7.0874,1.03367 z m 99.626,19.86131 q -8.1344,0 -15.3828,-2.65802 -7.168,-2.73185 -12.564,-7.67873 -5.5572,-5.09452 -8.6177,-12.03491 -3.0604,-6.94037 -3.0604,-15.13593 v -23.47916 q 0,-8.19555 3.0604,-15.13593 3.0605,-6.94038 8.6177,-12.03492 5.396,-4.94686 12.564,-7.60488 7.2484,-2.73186 15.3828,-2.73186 11.7586,0 20.9399,5.09454 6.9264,3.83936 12.6446,11.37042 2.2551,3.02718 2.2551,6.49736 0,3.83937 -3.141,6.71888 -3.302,2.87952 -8.0538,2.87952 -2.3356,0 -4.2686,-0.886 -1.9329,-0.886 -3.141,-2.58418 -2.0134,-2.87952 -3.2215,-4.28236 -1.1275,-1.40285 -2.8188,-2.43652 -2.094,-1.25518 -4.7518,-1.84584 -2.5772,-0.66451 -6.4431,-0.66451 -7.8123,0 -12.5639,4.13469 -5.4767,4.7992 -5.4767,13.36393 v 23.77449 q 0,8.56473 5.4767,13.36393 4.7516,4.13468 12.5639,4.13468 7.4095,0 12.0808,-2.87952 2.0134,-1.25516 3.6242,-2.95335 1.6108,-1.69817 3.2215,-4.13469 v -7.16188 h -6.2819 q -2.1746,0 -4.1075,-0.73835 -1.933,-0.81217 -3.3827,-2.14118 -1.4496,-1.329 -2.255,-3.10101 -0.8054,-1.84585 -0.8054,-3.9132 0,-1.91968 0.8054,-3.69169 0.8054,-1.84584 2.255,-3.2487 1.4497,-1.32899 3.3827,-2.06734 1.9329,-0.81216 4.1075,-0.81216 l 15.3827,0.14766 q 2.1746,0 4.1075,0.81218 2.0134,0.73833 3.5437,2.06735 3.1411,2.87951 3.1411,6.7927 v 15.94812 q 0,1.772 -0.2417,3.76552 -0.2416,2.28885 -0.8054,3.39635 -5.235,11.29657 -15.3023,17.64628 -9.7452,6.12822 -22.4702,6.12822 z m 68.4577,0 q -2.1745,0 -4.188,-0.73835 -1.933,-0.73834 -3.3826,-2.06734 -1.4497,-1.32902 -2.3357,-3.10102 -0.8053,-1.77202 -0.8053,-3.76553 v -79.14987 q 0,-4.06086 3.141,-6.94037 1.4496,-1.25518 3.3826,-1.99352 2.0135,-0.73834 4.188,-0.73834 4.4297,0 7.5706,2.73186 3.141,2.87951 3.141,6.94037 v 79.14987 q 0,1.99351 -0.8859,3.76553 -0.8054,1.772 -2.2551,3.10102 -3.0605,2.80569 -7.5706,2.80569 z m 42.0409,-0.81218 q -4.3491,-0.36917 -7.0068,-3.02719 -2.8994,-2.80568 -2.8994,-6.64504 v -78.04235 q 0,-1.99352 0.8053,-3.76553 0.8055,-1.84584 2.2552,-3.17485 3.141,-2.87953 7.6511,-2.87953 h 47.2761 q 4.4296,0 7.5706,2.87953 1.3691,1.32901 2.1745,3.17485 0.8054,1.77201 0.8054,3.76553 0,1.99351 -0.8054,3.83936 -0.8054,1.84584 -2.1745,3.17484 -3.141,2.87953 -7.5706,2.87953 h -36.5645 v 18.53229 h 27.3831 q 4.4296,0 7.5706,2.73184 3.141,2.87952 3.141,6.94039 0,4.06086 -3.141,6.79272 -3.0604,2.65802 -7.5706,2.65802 h -27.3831 v 20.59962 h 36.5645 q 4.4296,0 7.5706,2.87953 1.3691,1.32901 2.1745,3.17485 0.8054,1.84584 0.8054,3.83936 0,4.20852 -2.9799,6.94038 -3.141,2.73185 -7.5706,2.73185 z"
       id="text14"
       aria-label="NIA TECHNOLOGIE" />
    <g
       id="g2"
       transform="matrix(0.89324127,0,0,0.89324127,-254.39211,22.470096)">
      <rect
         style="fill:none;stroke:#ff0000;stroke-width:14.4536;stroke-dasharray:none"
         id="rect1"
         width="323.8038"
         height="95.685127"
         x="336.00238"
         y="-290.66"
         transform="matrix(0.71279806,0.70136932,-0.72485537,0.68890107,0,0)"
         rx="45.757832" />
      <rect
         style="fill:none;stroke:#ff0000;stroke-width:13.0352;stroke-dasharray:none"
         id="rect1-8"
         width="258.58545"
         height="97.053551"
         x="38.725712"
         y="-660.51044"
         transform="matrix(0.01022545,0.99994772,-0.99979808,-0.02009468,0,0)"
         rx="51.175541" />
      <path
         id="rect1-8-1"
         style="fill:none;stroke:#ff0000;stroke-width:12.5186"
         d="m 487.26101,255.02688 c 12.29576,24.62483 -13.09197,56.4827 -38.92216,55.95212 -25.83019,-0.53059 -47.19823,-14.88336 -47.12211,-50.65173 l 0.20982,-98.58855 c 59.60055,62.13168 77.28496,76.166 85.23911,92.09586 7.95415,15.92986 0.59534,1.1923 0.59534,1.1923 z"
         sodipodi:nodetypes="sssczs" />
    </g>
  </g>
</svg>
