<?xml version="1.0" encoding="UTF-8" standalone="no"?>
<!-- Created with Inkscape (http://www.inkscape.org/) -->

<svg
   version="1.1"
   id="svg1"
   width="1574.3167"
   height="282.64999"
   viewBox="0 0 1574.3166 282.65"
   sodipodi:docname="logo_nia_b.svg"
   inkscape:version="1.4 (86a8ad7, 2024-10-11)"
   xmlns:inkscape="http://www.inkscape.org/namespaces/inkscape"
   xmlns:sodipodi="http://sodipodi.sourceforge.net/DTD/sodipodi-0.dtd"
   xmlns="http://www.w3.org/2000/svg"
   xmlns:svg="http://www.w3.org/2000/svg">
  <defs
     id="defs1" />
  <sodipodi:namedview
     id="namedview1"
     pagecolor="#ffffff"
     bordercolor="#000000"
     borderopacity="0.25"
     inkscape:showpageshadow="2"
     inkscape:pageopacity="0.0"
     inkscape:pagecheckerboard="0"
     inkscape:deskcolor="#d1d1d1"
     inkscape:zoom="0.48"
     inkscape:cx="702.08333"
     inkscape:cy="144.79167"
     inkscape:window-width="1920"
     inkscape:window-height="991"
     inkscape:window-x="-9"
     inkscape:window-y="-9"
     inkscape:window-maximized="1"
     inkscape:current-layer="g1" />
  <g
     inkscape:groupmode="layer"
     inkscape:label="Image"
     id="g1"
     transform="translate(-82.178426,-43.575494)">
    <path
       style="font-weight:bold;font-size:154.554px;font-family:'Arista Pro Trial';-inkscape-font-specification:'Arista Pro Trial Bold';text-align:center;text-anchor:middle;fill:#ffffff;stroke:#162d50;stroke-width:0"
       d="m 346.44684,252.83385 q -2.03758,0 -3.99969,-0.75466 -1.88664,-0.83012 -3.24503,-2.18851 -3.0941,-2.94316 -3.0941,-7.24471 v -50.7885 q 0,-8.52764 2.41491,-15.77236 2.49037,-7.24472 7.16925,-12.52732 4.75435,-5.35808 11.54627,-8.22578 6.79193,-2.94317 15.2441,-2.94317 8.52764,0 15.47049,2.86771 6.94286,2.79223 11.84814,8.1503 4.82981,5.28261 7.32018,12.90466 2.56584,7.54658 2.56584,16.82888 v 49.50558 q 0,4.37701 -3.01863,7.24471 -1.43386,1.35839 -3.39597,2.18851 -1.88664,0.75466 -3.92422,0.75466 -4.22608,0 -7.32018,-2.94317 -3.01864,-2.8677 -3.01864,-7.24471 v -49.50558 q 0,-9.58416 -4.15062,-14.86677 -4.15062,-5.28261 -11.84813,-5.28261 -8.07484,0 -12.15,4.90528 -3.99969,4.82981 -3.99969,15.31956 v 49.43012 q 0,4.22608 -3.01863,7.24471 -1.43385,1.35839 -3.39596,2.18851 -1.96211,0.75466 -3.99969,0.75466 z m 94.63414,0.0755 q -2.03758,0 -3.92422,-0.75466 -1.81118,-0.75466 -3.16957,-2.11304 -1.35838,-1.35839 -2.18851,-3.16957 -0.75466,-1.81118 -0.75466,-3.84876 v -80.89936 q 0,-4.15062 2.94317,-7.09378 1.35839,-1.28292 3.16957,-2.03758 1.88664,-0.75466 3.92422,-0.75466 4.15062,0 7.09378,2.79224 2.94317,2.94316 2.94317,7.09378 v 80.89936 q 0,2.03758 -0.83012,3.84876 -0.75466,1.81118 -2.11305,3.16957 -2.8677,2.8677 -7.09378,2.8677 z m 39.69501,-0.0755 q -4.22608,0 -7.32018,-2.94317 -3.01863,-2.8677 -3.01863,-7.24471 v -50.7885 q 0,-8.52764 2.4149,-15.77236 2.49038,-7.24472 7.16926,-12.52732 4.75434,-5.35808 11.54627,-8.22578 6.79192,-2.94317 15.24409,-2.94317 8.52764,0 15.39503,2.86771 6.94286,2.79223 11.84813,8.1503 4.82982,5.28261 7.39565,12.90466 2.56584,7.54658 2.56584,16.82888 v 49.50558 q 0,4.22608 -3.01863,7.24471 -1.43385,1.35839 -3.39596,2.18851 -1.88665,0.75466 -3.92422,0.75466 -2.18851,0 -4.07516,-0.75466 -1.88664,-0.83012 -3.24503,-2.18851 -3.0941,-2.94316 -3.0941,-7.24471 v -15.77236 h -32.14844 v 15.77236 q 0,4.37701 -3.01863,7.24471 -1.43385,1.35839 -3.39596,2.18851 -1.88665,0.75466 -3.92423,0.75466 z m 42.48726,-46.56241 v -13.13105 q 0,-9.65963 -4.07515,-14.86677 -4.07516,-5.28261 -11.9236,-5.28261 -7.92391,0 -12.07453,4.90528 -4.07516,4.82981 -4.07516,15.31956 v 13.05559 z m 105.35029,46.71334 q -4.15062,0 -6.86739,-2.8677 -2.71676,-2.71677 -2.71676,-7.01832 v -70.71147 h -19.16832 q -4.15062,0 -7.09379,-2.94317 -2.8677,-2.8677 -2.8677,-7.09379 0,-2.03757 0.75466,-3.84875 0.75465,-1.81118 2.11304,-3.16957 2.94317,-2.94317 7.09379,-2.94317 h 57.65588 q 2.03758,0 3.84876,0.83013 1.88665,0.75466 3.24503,2.11304 1.35839,1.43385 2.11304,3.3205 0.83013,1.81118 0.83013,3.84875 0,2.03758 -0.83013,3.84876 -0.75465,1.81118 -2.11304,3.16957 -1.35838,1.35838 -3.24503,2.11304 -1.81118,0.75466 -3.84876,0.75466 h -18.79099 v 70.71147 q 0,2.03758 -0.83012,3.84876 -0.75466,1.81118 -2.11304,3.16956 -1.43385,1.35839 -3.3205,2.11304 -1.81118,0.75466 -3.84876,0.75466 z m 60.29719,-0.90559 q -4.07515,-0.37733 -6.56553,-3.0941 -2.71676,-2.8677 -2.71676,-6.79192 V 162.4258 q 0,-2.03758 0.75465,-3.84876 0.75466,-1.88664 2.11305,-3.24503 2.94316,-2.94317 7.16925,-2.94317 h 44.29844 q 4.15062,0 7.09378,2.94317 1.28292,1.35839 2.03758,3.24503 0.75466,1.81118 0.75466,3.84876 0,2.03758 -0.75466,3.92422 -0.75466,1.88665 -2.03758,3.24503 -2.94316,2.94317 -7.09378,2.94317 h -34.26149 v 18.94192 h 25.65838 q 4.15062,0 7.09379,2.79223 2.94317,2.94317 2.94317,7.09379 0,4.15062 -2.94317,6.94286 -2.8677,2.71677 -7.09379,2.71677 h -25.65838 v 21.05496 h 34.26149 q 4.15062,0 7.09378,2.94317 1.28292,1.35838 2.03758,3.24503 0.75466,1.88664 0.75466,3.92422 0,4.30155 -2.79224,7.09379 -2.94316,2.79223 -7.09378,2.79223 z m 104.59563,0.83013 q -7.62205,0 -14.41398,-2.71677 -6.71645,-2.79224 -11.77266,-7.84845 -5.20715,-5.20714 -8.07485,-12.30093 -2.8677,-7.09378 -2.8677,-15.47049 v -23.99813 q 0,-8.37671 2.8677,-15.47049 2.8677,-7.09379 8.07485,-12.30093 5.05621,-5.05621 11.77266,-7.77298 6.79193,-2.79224 14.41398,-2.79224 11.01801,0 19.62111,5.20714 6.49006,3.92423 11.84813,11.62174 2.11305,3.0941 2.11305,6.64099 0,3.99969 -3.01864,6.86739 -3.0941,2.94317 -7.47111,2.94317 -4.75435,0 -6.94286,-3.54689 -1.81118,-2.79224 -3.01863,-4.30156 -1.13199,-1.50931 -2.71677,-2.56583 -3.77329,-2.56584 -10.41428,-2.56584 -7.47112,0 -11.77267,4.22608 -5.13168,4.90528 -5.13168,13.65932 v 24.29999 q 0,8.75404 5.13168,13.65932 4.30155,4.22608 11.77267,4.22608 6.56552,0 10.48974,-2.56584 1.58479,-1.05652 2.79224,-2.56583 1.20745,-1.58479 2.8677,-4.30156 1.13199,-1.73571 2.94317,-2.56583 1.88664,-0.90559 4.07515,-0.90559 4.37702,0 7.47112,2.8677 2.94317,2.94316 2.94317,6.86739 0,3.16956 -1.96212,6.33913 -1.88664,3.09409 -5.2826,6.64099 -6.4146,6.56552 -15.31956,9.0559 -4.75435,1.43385 -11.01801,1.43385 z m 59.8444,0 q -4.22609,0 -7.09379,-2.8677 -1.35838,-1.35839 -2.18851,-3.16957 -0.75466,-1.81118 -0.75466,-3.84876 v -80.89936 q 0,-4.15062 2.94317,-7.09378 2.94317,-2.79224 7.09379,-2.79224 4.15062,0 7.09378,2.79224 2.94317,2.94316 2.94317,7.09378 v 32.9031 h 34.71428 v -32.9031 q 0,-2.03757 0.83012,-3.84875 0.83013,-1.81118 2.26398,-3.24503 1.35838,-1.28292 3.16956,-2.03758 1.88665,-0.75466 3.92422,-0.75466 4.15063,0 7.09379,2.79224 2.79224,2.94316 2.79224,7.09378 v 80.89936 q 0,2.03758 -0.83013,3.84876 -0.75465,1.81118 -2.11304,3.16957 -2.8677,2.8677 -7.09379,2.8677 -2.03757,0 -3.92422,-0.75466 -1.81118,-0.75466 -3.16956,-2.11304 -1.35839,-1.35839 -2.18851,-3.16957 -0.75466,-1.81118 -0.75466,-3.84876 v -27.84688 h -34.71428 v 27.84688 q 0,2.03758 -0.83012,3.84876 -0.75466,1.81118 -2.11305,3.16957 -2.8677,2.8677 -7.09378,2.8677 z m 95.16236,-0.0755 q -2.03757,0 -3.99968,-0.75466 -1.88665,-0.83012 -3.24503,-2.18851 -3.0941,-2.94316 -3.0941,-7.24471 v -50.7885 q 0,-8.52764 2.4149,-15.77236 2.49038,-7.24472 7.16926,-12.52732 4.75434,-5.35808 11.54627,-8.22578 6.79192,-2.94317 15.24409,-2.94317 8.52764,0 15.4705,2.86771 6.94285,2.79223 11.84817,8.1503 4.8298,5.28261 7.3201,12.90466 2.5659,7.54658 2.5659,16.82888 v 49.50558 q 0,4.37701 -3.0187,7.24471 -1.4338,1.35839 -3.3959,2.18851 -1.8867,0.75466 -3.9242,0.75466 -4.22612,0 -7.32022,-2.94317 -3.01863,-2.8677 -3.01863,-7.24471 v -49.50558 q 0,-9.58416 -4.15062,-14.86677 -4.15062,-5.28261 -11.84814,-5.28261 -8.07484,0 -12.14999,4.90528 -3.99969,4.82981 -3.99969,15.31956 v 49.43012 q 0,4.22608 -3.01863,7.24471 -1.43386,1.35839 -3.39597,2.18851 -1.96211,0.75466 -3.99969,0.75466 z m 121.49998,0.0755 q -7.5466,0 -14.414,-2.79224 -6.8674,-2.79223 -12.0745,-7.84844 -5.2826,-5.13168 -8.2258,-12.22547 -2.9432,-7.09378 -2.9432,-15.47049 v -23.99813 q 0,-8.37671 2.9432,-15.47049 2.9432,-7.09379 8.2258,-12.30093 5.2071,-5.05621 12.0745,-7.77298 6.8674,-2.79224 14.414,-2.79224 7.5466,0 14.3385,2.79224 6.8674,2.71677 12.0745,7.77298 5.2826,5.20714 8.2258,12.30093 2.9432,7.09378 2.9432,15.47049 v 23.99813 q 0,8.37671 -2.9432,15.47049 -2.9432,7.09379 -8.2258,12.22547 -5.2071,5.05621 -12.0745,7.84844 -6.7919,2.79224 -14.3385,2.79224 z m 0,-20.30031 q 3.4714,0 6.5655,-1.05652 3.0941,-1.05652 5.4336,-3.24503 5.358,-4.82981 5.358,-13.58385 v -24.29999 q 0,-4.45249 -1.4338,-7.84845 -1.3584,-3.47143 -3.9242,-5.7354 -2.3395,-2.18851 -5.4336,-3.24503 -3.0941,-1.05652 -6.5655,-1.05652 -3.4714,0 -6.641,1.13199 -3.0941,1.05652 -5.4335,3.16956 -2.5659,2.26397 -3.9997,5.7354 -1.3584,3.39596 -1.3584,7.84845 v 24.29999 q 0,8.75404 5.3581,13.58385 2.3394,2.11304 5.4335,3.24503 3.1696,1.05652 6.641,1.05652 z m 66.5609,19.47018 q -1.9621,-0.0755 -3.7733,-0.83012 -1.7357,-0.83012 -3.0186,-2.18851 -2.7923,-2.79224 -2.7923,-6.86739 v -80.06924 q 0,-4.15062 2.9432,-7.09378 1.3584,-1.28292 3.1696,-2.03758 1.8866,-0.75466 3.9242,-0.75466 4.1506,0 7.0938,2.79224 2.9431,2.94316 2.9431,7.09378 v 69.95682 l 34.2615,0.0755 q 4.1506,0 7.0938,2.94316 2.8677,2.8677 2.8677,7.09379 0,4.37702 -2.8677,7.09379 -2.7922,2.79223 -7.0938,2.79223 z m 100.1431,0.83013 q -7.5465,0 -14.4139,-2.79224 -6.8674,-2.79223 -12.0746,-7.84844 -5.2826,-5.13168 -8.2257,-12.22547 -2.9432,-7.09378 -2.9432,-15.47049 v -23.99813 q 0,-8.37671 2.9432,-15.47049 2.9431,-7.09379 8.2257,-12.30093 5.2072,-5.05621 12.0746,-7.77298 6.8674,-2.79224 14.4139,-2.79224 7.5466,0 14.3385,2.79224 6.8674,2.71677 12.0746,7.77298 5.2826,5.20714 8.2257,12.30093 2.9432,7.09378 2.9432,15.47049 v 23.99813 q 0,8.37671 -2.9432,15.47049 -2.9431,7.09379 -8.2257,12.22547 -5.2072,5.05621 -12.0746,7.84844 -6.7919,2.79224 -14.3385,2.79224 z m 0,-20.30031 q 3.4715,0 6.5656,-1.05652 3.0941,-1.05652 5.4335,-3.24503 5.3581,-4.82981 5.3581,-13.58385 v -24.29999 q 0,-4.45249 -1.4339,-7.84845 -1.3584,-3.47143 -3.9242,-5.7354 -2.3394,-2.18851 -5.4335,-3.24503 -3.0941,-1.05652 -6.5656,-1.05652 -3.4714,0 -6.641,1.13199 -3.0941,1.05652 -5.4335,3.16956 -2.5658,2.26397 -3.9997,5.7354 -1.3584,3.39596 -1.3584,7.84845 v 24.29999 q 0,8.75404 5.3581,13.58385 2.3394,2.11304 5.4335,3.24503 3.1696,1.05652 6.641,1.05652 z m 93.3512,20.30031 q -7.622,0 -14.4139,-2.71677 -6.7165,-2.79224 -11.7727,-7.84845 -5.2072,-5.20714 -8.0749,-12.30093 -2.8677,-7.09378 -2.8677,-15.47049 v -23.99813 q 0,-8.37671 2.8677,-15.47049 2.8677,-7.09379 8.0749,-12.30093 5.0562,-5.05621 11.7727,-7.77298 6.7919,-2.79224 14.4139,-2.79224 11.018,0 19.6211,5.20714 6.4901,3.92423 11.8482,11.62174 2.113,3.0941 2.113,6.64099 0,3.92423 -2.9431,6.86739 -3.0941,2.94317 -7.5466,2.94317 -2.1885,0 -3.9997,-0.90559 -1.8112,-0.90559 -2.9432,-2.6413 -1.8866,-2.94317 -3.0186,-4.37702 -1.0565,-1.43385 -2.6413,-2.49037 -1.9621,-1.28292 -4.4525,-1.88665 -2.4149,-0.67919 -6.0373,-0.67919 -7.3202,0 -11.7726,4.22608 -5.1317,4.90528 -5.1317,13.65932 v 24.29999 q 0,8.75404 5.1317,13.65932 4.4524,4.22608 11.7726,4.22608 6.9429,0 11.3199,-2.94317 1.8866,-1.28291 3.396,-3.01863 1.5093,-1.73571 3.0186,-4.22608 v -7.32019 h -5.8863 q -2.0376,0 -3.8488,-0.75466 -1.8112,-0.83012 -3.1696,-2.18851 -1.3583,-1.35838 -2.113,-3.16956 -0.7547,-1.88665 -0.7547,-3.99969 0,-1.96211 0.7547,-3.77329 0.7547,-1.88665 2.113,-3.3205 1.3584,-1.35838 3.1696,-2.11304 1.8112,-0.83012 3.8488,-0.83012 l 14.4139,0.15093 q 2.0376,0 3.8488,0.83012 1.8866,0.75466 3.3205,2.11305 2.9432,2.94316 2.9432,6.94285 v 16.30062 q 0,1.81118 -0.2264,3.84876 -0.2264,2.33944 -0.7547,3.47142 -4.9053,11.54627 -14.3385,18.03633 -9.1314,6.26367 -21.055,6.26367 z m 64.146,0 q -2.0375,0 -3.9242,-0.75466 -1.8112,-0.75466 -3.1695,-2.11304 -1.3584,-1.35839 -2.1886,-3.16957 -0.7546,-1.81118 -0.7546,-3.84876 v -80.89936 q 0,-4.15062 2.9432,-7.09378 1.3583,-1.28292 3.1695,-2.03758 1.8867,-0.75466 3.9242,-0.75466 4.1507,0 7.0938,2.79224 2.9432,2.94316 2.9432,7.09378 v 80.89936 q 0,2.03758 -0.8301,3.84876 -0.7547,1.81118 -2.1131,3.16957 -2.8677,2.8677 -7.0938,2.8677 z m 39.3931,-0.83013 q -4.0752,-0.37733 -6.5655,-3.0941 -2.7168,-2.8677 -2.7168,-6.79192 V 162.4258 q 0,-2.03758 0.7546,-3.84876 0.7547,-1.88664 2.1131,-3.24503 2.9432,-2.94317 7.1692,-2.94317 h 44.2985 q 4.1506,0 7.0938,2.94317 1.2829,1.35839 2.0375,3.24503 0.7547,1.81118 0.7547,3.84876 0,2.03758 -0.7547,3.92422 -0.7546,1.88665 -2.0375,3.24503 -2.9432,2.94317 -7.0938,2.94317 h -34.2615 v 18.94192 h 25.6584 q 4.1506,0 7.0938,2.79223 2.9431,2.94317 2.9431,7.09379 0,4.15062 -2.9431,6.94286 -2.8677,2.71677 -7.0938,2.71677 h -25.6584 v 21.05496 h 34.2615 q 4.1506,0 7.0938,2.94317 1.2829,1.35838 2.0375,3.24503 0.7547,1.88664 0.7547,3.92422 0,4.30155 -2.7922,7.09379 -2.9432,2.79223 -7.0938,2.79223 z"
       id="text14"
       transform="scale(1.0672169,0.93701664)"
       aria-label="NIA TECHNOLOGIE" />
    <g
       id="g2"
       transform="matrix(0.6597896,0,0,0.6597896,-125.19977,70.357104)">
      <rect
         style="fill:none;stroke:#ff0000;stroke-width:14.4536;stroke-dasharray:none"
         id="rect1"
         width="323.8038"
         height="95.685127"
         x="336.00238"
         y="-290.66"
         transform="matrix(0.71279806,0.70136932,-0.72485537,0.68890107,0,0)"
         rx="45.757832" />
      <rect
         style="fill:none;stroke:#ff0000;stroke-width:13.0352;stroke-dasharray:none"
         id="rect1-8"
         width="258.58545"
         height="97.053551"
         x="38.725712"
         y="-660.51044"
         transform="matrix(0.01022545,0.99994772,-0.99979808,-0.02009468,0,0)"
         rx="51.175541" />
      <path
         id="rect1-8-1"
         style="fill:none;stroke:#ff0000;stroke-width:12.5186"
         d="m 487.26101,255.02688 c 12.29576,24.62483 -13.09197,56.4827 -38.92216,55.95212 -25.83019,-0.53059 -47.19823,-14.88336 -47.12211,-50.65173 l 0.20982,-98.58855 c 59.60055,62.13168 77.28496,76.166 85.23911,92.09586 7.95415,15.92986 0.59534,1.1923 0.59534,1.1923 z"
         sodipodi:nodetypes="sssczs" />
    </g>
  </g>
</svg>
