<?xml version="1.0" encoding="UTF-8" standalone="no"?>
<!-- Created with Inkscape (http://www.inkscape.org/) -->

<svg
   version="1.1"
   id="svg1"
   width="900.12042"
   height="207.83267"
   viewBox="0 0 900.12042 207.83267"
   sodipodi:docname="logo_nia_b.svg"
   inkscape:version="1.4 (86a8ad7, 2024-10-11)"
   xmlns:inkscape="http://www.inkscape.org/namespaces/inkscape"
   xmlns:sodipodi="http://sodipodi.sourceforge.net/DTD/sodipodi-0.dtd"
   xmlns="http://www.w3.org/2000/svg"
   xmlns:svg="http://www.w3.org/2000/svg">
  <defs
     id="defs1">
    <rect
       x="246.31307"
       y="58.990944"
       width="501.94049"
       height="94.178525"
       id="rect2" />
    <rect
       x="246.31306"
       y="58.990944"
       width="501.94049"
       height="94.178528"
       id="rect2-4" />
  </defs>
  <sodipodi:namedview
     id="namedview1"
     pagecolor="#ffffff"
     bordercolor="#000000"
     borderopacity="0.25"
     inkscape:showpageshadow="2"
     inkscape:pageopacity="0.0"
     inkscape:pagecheckerboard="0"
     inkscape:deskcolor="#d1d1d1"
     showgrid="false"
     inkscape:zoom="0.96625"
     inkscape:cx="557.82665"
     inkscape:cy="135.05821"
     inkscape:window-width="1920"
     inkscape:window-height="991"
     inkscape:window-x="-9"
     inkscape:window-y="-9"
     inkscape:window-maximized="1"
     inkscape:current-layer="g1" />
  <g
     inkscape:groupmode="layer"
     inkscape:label="Image"
     id="g1"
     transform="translate(5.8544416,2.9272208)">
    <path
       style="fill:#ffffff;stroke-width:1.24853"
       d="m 19.517464,167.67704 c 0,-0.30362 30.166829,-44.68813 83.132766,-122.313372 7.37968,-10.815422 13.74598,-19.659534 14.14736,-19.653584 0.40137,0.006 4.72802,5.764813 9.61478,12.797469 4.88677,7.032657 20.85014,29.922772 35.47415,50.866917 14.62402,20.94415 31.64524,45.3842 37.82495,54.31121 6.1797,8.92702 12.61615,18.05692 14.30325,20.28867 l 3.06742,4.05773 h -8.16055 -8.16057 L 159.94476,108.72674 C 137.4958,76.108806 118.70832,49.421402 118.19479,49.421402 c -0.51354,0 -2.85334,2.94966 -5.19956,6.554801 -2.34622,3.60514 -20.219063,30.29254 -39.717439,59.305337 l -35.451579,52.75054 h -9.154374 c -5.034906,0 -9.154374,-0.15977 -9.154374,-0.35504 z"
       id="path1" />
    <path
       style="fill:#ffffff;stroke-width:1.24853"
       d="m 50.746996,165.22288 c 0.0094,-1.61797 10.107403,-17.10386 23.813798,-36.5196 C 87.649477,110.16255 102.3876,89.18945 107.31218,82.096381 l 8.95378,-12.896503 4.04559,4.781031 c 2.22507,2.629566 4.03275,5.623786 4.01707,6.653826 -0.0157,1.03004 -11.45262,17.885243 -25.415424,37.456005 l -25.386919,35.58321 50.304133,0.62427 50.30413,0.62426 4.47042,5.85564 c 2.45871,3.22059 4.4704,6.17025 4.4704,6.5548 0,0.38453 -29.77753,0.69916 -66.17228,0.69916 H 50.730802 Z"
       id="path2" />
    <path
       d="m 252.17773,62.216875 h 1.62305 v 7.693359 h -1.60547 l -3.5332,-4.980468 v 4.980468 h -1.65234 v -7.693359 h 1.6289 l 3.53906,4.945313 z m 3.08789,0 h 1.65235 v 7.693359 h -1.65235 z m 5.86524,0 h 1.2832 l 3.14063,7.693359 h -1.66407 l -0.62695,-1.511718 h -2.94726 l -0.60352,1.511718 h -1.6582 z m 0.64453,2.519531 -0.89648,2.267578 h 1.82226 z"
       id="text2"
       style="font-weight:bold;font-family:'Tw Cen MT';-inkscape-font-specification:'Tw Cen MT Bold';white-space:pre;fill:#ff0000"
       transform="matrix(34.811952,0,0,9.487519,-8388.5184,-568.97662)"
       aria-label="NIA " />
    <path
       d="m 246.56445,62.216875 h 5.17383 v 1.634766 h -1.76367 v 6.058593 h -1.6582 v -6.058593 h -1.75196 z m 6.28711,0 h 4.33008 v 1.523438 h -2.67187 v 1.552734 h 2.67187 v 1.5 h -2.67187 v 1.59375 h 2.67187 v 1.523437 h -4.33008 z m 11.48438,0.410156 v 1.88086 q -1.24805,-0.75586 -2.18555,-0.75586 -0.9375,0 -1.5,0.644532 -0.5625,0.644531 -0.5625,1.734375 0,1.03125 0.5918,1.652343 0.59179,0.615235 1.58203,0.615235 0.86719,0 2.07422,-0.697266 v 1.863281 q -1.35352,0.451172 -2.25586,0.451172 -1.55274,0 -2.63672,-1.136719 -1.08399,-1.142578 -1.08399,-2.783203 0,-1.669922 1.10157,-2.824218 1.10742,-1.160157 2.68945,-1.160157 1.01953,0 2.18555,0.515625 z m 1.23633,-0.410156 h 1.6582 v 2.964844 h 2.72461 v -2.964844 h 1.65234 v 7.693359 h -1.65234 v -3.058593 h -2.72461 v 3.058593 h -1.6582 z m 12.71484,0 h 1.62305 v 7.693359 h -1.60547 l -3.53321,-4.980468 v 4.980468 h -1.65234 v -7.693359 h 1.62891 l 3.53906,4.945313 z m 2.91797,3.84375 q 0,-1.705078 1.125,-2.8125 1.13086,-1.113281 2.67773,-1.113281 1.71094,0 2.83008,1.11914 1.11914,1.113282 1.11914,2.81836 0,1.693359 -1.10742,2.8125 -1.10742,1.11914 -2.78906,1.11914 -1.68164,0 -2.77149,-1.113281 -1.08398,-1.113281 -1.08398,-2.830078 z M 285.08398,63.67 q -0.96679,-0.01758 -1.55859,0.667969 -0.5918,0.685547 -0.5918,1.769531 0,1.025391 0.60352,1.699219 0.60351,0.673828 1.52344,0.673828 0.96679,0 1.55859,-0.662109 0.59766,-0.667969 0.59766,-1.757813 0,-1.072266 -0.58594,-1.722656 -0.58008,-0.650391 -1.54688,-0.667969 z m 5.29102,-1.453125 h 1.64648 v 6.035156 h 2.26758 v 1.658203 H 290.375 Z m 4.7168,3.84375 q 0,-1.705078 1.125,-2.8125 1.13086,-1.113281 2.67773,-1.113281 1.71094,0 2.83008,1.11914 1.11914,1.113282 1.11914,2.81836 0,1.693359 -1.10742,2.8125 -1.10742,1.11914 -2.78906,1.11914 -1.68165,0 -2.77149,-1.113281 -1.08398,-1.113281 -1.08398,-2.830078 z M 298.9707,63.67 q -0.96679,-0.01758 -1.55859,0.667969 -0.5918,0.685547 -0.5918,1.769531 0,1.025391 0.60352,1.699219 0.60351,0.673828 1.52344,0.673828 0.96679,0 1.55859,-0.662109 0.59766,-0.667969 0.59766,-1.757813 0,-1.072266 -0.58594,-1.722656 Q 299.9375,63.687578 298.9707,63.67 Z m 11.79492,0.216797 -1.10156,1.03125 q -0.3457,-0.597656 -0.85547,-0.890625 -0.50976,-0.298828 -1.0664,-0.298828 -0.90235,0 -1.57032,0.685547 -0.6621,0.685547 -0.6621,1.617187 0,0.990235 0.6621,1.681641 0.66797,0.685547 1.60547,0.685547 0.50977,0 0.97852,-0.257813 0.47461,-0.257812 0.76172,-0.966797 h -1.82227 v -1.5 h 3.55078 V 66.67 q 0,0.767578 -0.52734,1.652344 -0.52734,0.878906 -1.38867,1.289062 -0.86133,0.404297 -1.74024,0.404297 -1.59375,0 -2.68945,-1.154297 -1.0957,-1.154297 -1.0957,-2.853515 0,-1.611328 1.125,-2.753907 1.13086,-1.142578 2.71875,-1.142578 2.02734,0 3.11718,1.775391 z m 1.63477,-1.669922 h 1.65234 v 7.693359 h -1.65234 z m 3.21094,0 h 4.33008 v 1.523438 h -2.67188 v 1.552734 h 2.67188 v 1.5 h -2.67188 v 1.59375 h 2.67188 v 1.523437 h -4.33008 z"
       id="text2-2"
       style="font-weight:bold;font-family:'Tw Cen MT';-inkscape-font-specification:'Tw Cen MT Bold';white-space:pre;fill:#ffffff"
       transform="matrix(8.8312132,0,0,9.487519,-1969.4078,-487.98786)"
       aria-label="TECHNOLOGIE" />
  </g>
</svg>
